HIERARCHY
ROOT Hips
{
 OFFSET 0.000000 0.000000 0.000000
 CHANNELS 6 Xposition Yposition Zposition Yrotation Xrotation Zrotation
 JOINT Chest
 {
  OFFSET 0.000000 10.101222 -0.056779
  CHANNELS 3 Yrotation Xrotation Zrotation
  JOINT Chest2
  {
   OFFSET 0.000000 8.297218 0.103137
   CHANNELS 3 Yrotation Xrotation Zrotation
   JOINT Chest3
   {
    OFFSET 0.000000 7.493411 0.000000
    CHANNELS 3 Yrotation Xrotation Zrotation
    JOINT Chest4
    {
     OFFSET 0.000000 7.493411 0.000000
     CHANNELS 3 Yrotation Xrotation Zrotation
     JOINT Neck
     {
      OFFSET 0.000000 10.747351 0.000000
      CHANNELS 3 Yrotation Xrotation Zrotation
      JOINT Head
      {
       OFFSET 0.000000 7.717153 0.188667
       CHANNELS 3 Yrotation Xrotation Zrotation
       End Site
       {
        OFFSET 0.000000 14.853047 0.068983
       }
      }
     }
     JOINT RightCollar
     {
      OFFSET -2.766550 6.061559 0.000000
      CHANNELS 3 Yrotation Xrotation Zrotation
      JOINT RightShoulder
      {
       OFFSET -14.830725 0.000000 0.000000
       CHANNELS 3 Yrotation Xrotation Zrotation
       JOINT RightElbow
       {
        OFFSET -28.959634 0.000000 0.000000
        CHANNELS 3 Yrotation Xrotation Zrotation
        JOINT RightWrist
        {
         OFFSET -23.742631 0.000000 0.003006
         CHANNELS 3 Yrotation Xrotation Zrotation
         End Site
         {
          OFFSET -17.766445 0.000000 0.000000
         }
        }
       }
      }
     }
     JOINT LeftCollar
     {
      OFFSET 2.766550 6.061559 0.000000
      CHANNELS 3 Yrotation Xrotation Zrotation
      JOINT LeftShoulder
      {
       OFFSET 14.830725 0.000000 0.000000
       CHANNELS 3 Yrotation Xrotation Zrotation
       JOINT LeftElbow
       {
        OFFSET 28.959634 0.000000 0.000000
        CHANNELS 3 Yrotation Xrotation Zrotation
        JOINT LeftWrist
        {
         OFFSET 23.742631 0.000000 0.003006
         CHANNELS 3 Yrotation Xrotation Zrotation
         End Site
         {
          OFFSET 17.766445 0.000000 0.000000
         }
        }
       }
      }
     }
    }
   }
  }
 }
 JOINT RightHip
 {
  OFFSET -8.655184 0.278217 0.028389
  CHANNELS 3 Yrotation Xrotation Zrotation
  JOINT RightKnee
  {
   OFFSET 0.000000 -47.671744 -0.001158
   CHANNELS 3 Yrotation Xrotation Zrotation
   JOINT RightAnkle
   {
    OFFSET 0.000000 -42.492694 -0.036854
    CHANNELS 3 Yrotation Xrotation Zrotation
    JOINT RightToe
    {
     OFFSET 0.000000 -5.741774 14.901460
     CHANNELS 3 Yrotation Xrotation Zrotation
     End Site
     {
      OFFSET 0.000000 -1.778666 8.212983
     }
    }
   }
  }
 }
 JOINT LeftHip
 {
  OFFSET 8.655184 0.278217 0.028389
  CHANNELS 3 Yrotation Xrotation Zrotation
  JOINT LeftKnee
  {
   OFFSET 0.000000 -47.671744 -0.001158
   CHANNELS 3 Yrotation Xrotation Zrotation
   JOINT LeftAnkle
   {
    OFFSET 0.000000 -42.492694 -0.036854
    CHANNELS 3 Yrotation Xrotation Zrotation
    JOINT LeftToe
    {
     OFFSET 0.000000 -5.741774 14.901460
     CHANNELS 3 Yrotation Xrotation Zrotation
     End Site
     {
      OFFSET 0.000000 -1.778666 8.212983
     }
    }
   }
  }
 }
}
MOTION
Frames: 16
Frame Time: 0.004167
0.000000 95.428143 0.000000 0.000000 -5.826342 0.000000 0.000000 11.116423 0.000000 0.000000 -5.290081 0.000000 0.000000 0.000000 0.000000 0.000000 0.000000 0.000000 0.000000 12.665069 0.000000 0.000000 0.575450 0.000000 0.000000 0.000000 0.000000 0.000000 0.000000 0.000000 2.337306 0.000000 0.000000 -2.337306 0.000000 0.000000 0.000000 0.000000 0.000000 0.000000 0.000000 0.000000 -2.337306 0.000000 0.000000 2.337306 0.000000 0.000000 0.000000 8.578828 0.000000 0.000000 1.905768 0.000000 0.000000 -4.658254 0.000000 0.000000 0.000000 0.000000 0.000000 8.578828 0.000000 0.000000 1.905768 0.000000 0.000000 -4.658254 0.000000 0.000000 0.000000 0.000000
731.002135 97.158424 896.592401 113.130525 -11.894530 -3.505487 1.609488 11.945066 -0.822966 0.759248 -2.334567 -0.453953 0.759630 2.955048 -0.383862 0.571454 2.215813 -0.291510 24.614193 20.774827 -5.453845 46.012372 7.706168 -15.825546 2.780608 -5.182908 -5.282996 21.625261 -13.946681 75.364977 114.368743 1.879134 13.578662 -28.561494 12.238225 -17.758618 1.262418 -0.939469 -5.538077 -6.181830 4.556909 -70.391289 -8.012642 -36.945007 -92.586147 -17.798853 -33.328119 2.983607 -3.156607 15.591559 3.580307 3.725061 6.122442 0.331540 -9.436350 -6.477663 -11.498287 0.489076 0.751781 11.708160 3.581971 9.114711 6.214973 -14.383841 8.120686 -3.187913 10.710349 -10.687136 0.813719 0.000000 -0.000000 0.000000
731.028613 97.154952 896.734200 113.204891 -11.885869 -3.547628 1.575493 11.923819 -0.813554 0.743634 -2.343941 -0.447838 0.743997 2.945693 -0.379189 0.559704 2.208812 -0.287919 24.606260 20.744947 -5.436532 46.000279 7.643748 -15.804691 2.776747 -5.176830 -5.290107 21.701690 -13.957158 75.327190 114.376388 1.902674 13.587032 -28.622969 12.232736 -17.767802 1.277192 -0.898730 -5.531191 -6.105139 4.592518 -70.441927 -8.076528 -36.929797 -92.560614 -17.811465 -33.343954 2.961891 -3.140505 15.739840 3.672764 3.742064 5.779561 0.402368 -9.479095 -6.344997 -11.603712 0.488006 0.773954 11.664001 3.749962 9.008627 6.355119 -14.579256 8.206365 -3.175521 10.648572 -10.633151 0.703680 0.000000 0.000000 -0.000000
731.051111 97.151045 896.875431 113.278622 -11.875934 -3.588174 1.541661 11.904253 -0.803757 0.728071 -2.352566 -0.441568 0.728416 2.937085 -0.374356 0.547993 2.202371 -0.284210 24.596694 20.714644 -5.421705 45.985919 7.581093 -15.788007 2.773590 -5.172942 -5.299148 21.776424 -13.968538 75.287414 114.384308 1.920230 13.596361 -28.681168 12.226589 -17.778565 1.291021 -0.861100 -5.526298 -6.032206 4.627170 -70.490703 -8.137399 -36.914992 -92.536100 -17.821804 -33.360090 2.936913 -3.093743 15.874955 3.768831 3.729722 5.451580 0.478486 -9.521873 -6.216250 -11.711111 0.486384 0.792320 11.620970 3.905538 8.896915 6.490549 -14.759638 8.297430 -3.164769 10.584442 -10.577822 0.588484 0.000000 0.000000 0.000000
731.068295 97.146792 897.016813 113.350329 -11.864835 -3.627651 1.509000 11.887041 -0.793021 0.712978 -2.360145 -0.434956 0.713307 2.929524 -0.369137 0.536635 2.196716 -0.280215 24.585396 20.683776 -5.409870 45.969260 7.518119 -15.776401 2.771460 -5.172405 -5.310256 21.847545 -13.981236 75.245798 114.391665 1.929230 13.607460 -28.734487 12.219755 -17.790683 1.303741 -0.828119 -5.523750 -5.964398 4.659796 -70.537198 -8.193365 -36.901064 -92.512946 -17.828864 -33.376186 2.908488 -3.012796 15.992944 3.871761 3.684096 5.144091 0.557033 -9.563534 -6.093061 -11.819391 0.484359 0.807534 11.579590 4.045836 8.778444 6.621343 -14.920121 8.395848 -3.155464 10.517967 -10.521257 0.466177 -0.000000 -0.000000 -0.000000
731.078827 97.142281 897.159066 113.418620 -11.852681 -3.666582 1.478520 11.872855 -0.780788 0.698771 -2.366378 -0.427810 0.699086 2.923308 -0.363303 0.525940 2.192069 -0.275765 24.572268 20.652195 -5.401533 45.950278 7.454742 -15.770782 2.770678 -5.176380 -5.323568 21.913135 -13.995666 75.202489 114.397631 1.927104 13.621134 -28.781325 12.212209 -17.803940 1.315191 -0.801325 -5.523897 -5.903075 4.689324 -70.580995 -8.242541 -36.888488 -92.491490 -17.831638 -33.391897 2.876429 -2.894156 16.089812 3.984759 3.601285 4.862698 0.635179 -9.602913 -5.977060 -11.927455 0.482080 0.820252 11.540385 4.167988 8.652098 6.747598 -15.055844 8.503601 -3.147395 10.449147 -10.463562 0.334807 -0.000000 -0.000000 0.000000
731.081372 97.137599 897.302910 113.482107 -11.839582 -3.705495 1.451229 11.862365 -0.766502 0.685870 -2.370966 -0.419940 0.686173 2.918735 -0.356624 0.516223 2.188654 -0.270690 24.557214 20.619755 -5.397199 45.928949 7.390874 -15.772061 2.771568 -5.186028 -5.339221 21.971278 -14.012245 75.157631 114.401379 1.911273 13.638188 -28.820075 12.203929 -17.818125 1.325207 -0.782258 -5.527093 -5.849601 4.714681 -70.621678 -8.283046 -36.877742 -92.472063 -17.829120 -33.406877 2.840554 -2.734347 16.161519 4.110969 3.477417 4.613012 0.710097 -9.638833 -5.869873 -12.034203 0.479690 0.831130 11.503878 4.269122 8.516775 6.869429 -15.161949 8.622685 -3.140329 10.377974 -10.404841 0.192425 0.000000 0.000000 0.000000
731.074595 97.132835 897.449068 113.539398 -11.825648 -3.744917 1.428140 11.856243 -0.749605 0.674691 -2.373612 -0.411157 0.674987 2.916102 -0.348872 0.507797 2.186696 -0.264821 24.540139 20.586308 -5.397373 45.905259 7.326427 -15.781149 2.774453 -5.202509 -5.357355 22.020057 -14.031386 75.111370 114.402082 1.879161 13.659424 -28.849133 12.194898 -17.833031 1.333628 -0.772458 -5.533689 -5.805334 4.734794 -70.658832 -8.312997 -36.869303 -92.454997 -17.820305 -33.420778 2.800675 -2.529941 16.203959 4.253452 3.308640 4.400642 0.778940 -9.670105 -5.773122 -12.138534 0.477333 0.840821 11.470596 4.346361 8.371384 6.986981 -15.233586 8.755113 -3.134001 10.304436 -10.345195 0.037087 0.000000 0.000000 0.000000
731.056713 97.127814 897.596810 113.591036 -11.809739 -3.783150 1.408621 11.854566 -0.730590 0.664984 -2.374283 -0.401642 0.665274 2.915444 -0.340253 0.500472 2.186217 -0.258311 24.521613 20.551742 -5.403035 45.880499 7.261785 -15.799889 2.779514 -5.226507 -5.379603 22.059756 -14.053533 75.062768 114.400369 1.827910 13.685729 -28.867332 12.185577 -17.848164 1.340252 -0.772451 -5.545375 -5.770816 4.749778 -70.692342 -8.333529 -36.864348 -92.439287 -17.803756 -33.433222 2.753556 -2.255014 16.209907 4.412916 3.069788 4.231332 0.850378 -9.697039 -5.688576 -12.243926 0.474457 0.845972 11.440916 4.398054 8.216018 7.098020 -15.267510 8.897414 -3.126574 10.225628 -10.276023 -0.131842 0.000000 0.000000 -0.000000
731.028050 97.122325 897.744889 113.638881 -11.791015 -3.818537 1.391179 11.856645 -0.710369 0.656135 -2.373284 -0.391718 0.656422 2.916453 -0.331146 0.493791 2.186989 -0.251441 24.502122 20.516140 -5.414253 45.855553 7.197275 -15.828461 2.786520 -5.257191 -5.406858 22.092651 -14.078503 75.011058 114.397564 1.758509 13.716769 -28.875685 12.176300 -17.863464 1.345125 -0.780892 -5.562848 -5.744902 4.760863 -70.722601 -8.347429 -36.863114 -92.423914 -17.779646 -33.444342 2.697333 -1.897064 16.178739 4.586098 2.748982 4.102562 0.933124 -9.721084 -5.615578 -12.353787 0.470562 0.843727 11.414502 4.426306 8.052085 7.201074 -15.266965 9.045293 -3.117023 10.139607 -10.191748 -0.312623 -0.000000 -0.000000 0.000000
730.990430 97.116410 897.893244 113.683519 -11.770042 -3.851667 1.375526 11.862007 -0.689020 0.648019 -2.370826 -0.381401 0.648305 2.918920 -0.321577 0.487661 2.188854 -0.244230 24.481440 20.479645 -5.430161 45.829790 7.132723 -15.865284 2.795173 -5.293442 -5.438148 22.119815 -14.105782 74.956646 114.393868 1.674143 13.751523 -28.875842 12.166861 -17.879374 1.348460 -0.796511 -5.584967 -5.726426 4.768649 -70.749953 -8.355294 -36.864676 -92.409184 -17.749384 -33.454549 2.633883 -1.472854 16.116272 4.769983 2.362350 4.007567 1.024284 -9.742754 -5.552104 -12.466907 0.465862 0.835496 11.390809 4.433869 7.880453 7.297447 -15.236830 9.199529 -3.106274 10.047817 -10.096992 -0.503631 -0.000000 0.000000 0.000000
730.945672 97.110108 898.041811 113.725537 -11.747381 -3.883129 1.361374 11.870179 -0.666623 0.640514 -2.367120 -0.370708 0.640800 2.922634 -0.311578 0.481987 2.191655 -0.236699 24.459340 20.442402 -5.449893 45.802572 7.067955 -15.908772 2.805176 -5.334142 -5.472501 22.142318 -14.134857 74.899938 114.389479 1.578001 13.788973 -28.869455 12.157054 -17.896328 1.350470 -0.818040 -5.610591 -5.714221 4.773737 -70.774740 -8.357716 -36.868104 -92.395409 -17.714379 -33.464252 2.565085 -0.999104 16.028440 4.961587 1.926048 3.939605 1.120924 -9.762571 -5.496133 -12.582079 0.460570 0.822687 11.369292 4.423484 7.701966 7.388438 -15.181993 9.360886 -3.095265 9.951743 -9.996371 -0.703250 0.000000 0.000000 0.000000
730.895599 97.103460 898.190529 113.765522 -11.723593 -3.913515 1.348435 11.880688 -0.643257 0.633494 -2.362376 -0.359659 0.633782 2.927386 -0.301176 0.476677 2.195233 -0.228871 24.435591 20.404556 -5.472582 45.773256 7.002796 -15.957338 2.816228 -5.378175 -5.508941 22.161233 -14.165215 74.841344 114.384592 1.473273 13.828106 -28.858172 12.146667 -17.914758 1.351370 -0.844211 -5.638577 -5.707122 4.776732 -70.797303 -8.355285 -36.872471 -92.382904 -17.676043 -33.473862 2.492820 -0.492469 15.921315 5.158039 1.456257 3.891938 1.220115 -9.781063 -5.445649 -12.698094 0.454895 0.806712 11.349409 4.397886 7.517445 7.475330 -15.107346 9.530122 -3.084952 9.852908 -9.894495 -0.909863 -0.000000 -0.000000 0.000000
730.842033 97.096505 898.339337 113.804062 -11.699237 -3.943415 1.336417 11.893062 -0.619002 0.626834 -2.356802 -0.348271 0.627124 2.932966 -0.290403 0.471635 2.199432 -0.220767 24.409963 20.366251 -5.497362 45.741191 6.937072 -16.009392 2.828027 -5.424424 -5.546496 22.177629 -14.196345 74.781274 114.379402 1.363152 13.867912 -28.843645 12.135486 -17.935092 1.351374 -0.873754 -5.667783 -5.703963 4.778240 -70.817981 -8.348591 -36.876845 -92.371984 -17.635790 -33.483793 2.418966 0.030491 15.801119 5.356644 0.969177 3.857819 1.318978 -9.798765 -5.398636 -12.813749 0.449048 0.788979 11.330616 4.359801 7.327697 7.559393 -15.017788 9.707978 -3.076314 9.752885 -9.795965 -1.121859 0.000000 0.000000 0.000000
730.786795 97.089284 898.488172 113.841746 -11.674869 -3.973421 1.325028 11.906829 -0.593940 0.620408 -2.350610 -0.336562 0.620702 2.939164 -0.279288 0.466769 2.204094 -0.212407 24.382220 20.327631 -5.523366 45.705724 6.870608 -16.063341 2.840272 -5.471775 -5.584186 22.192576 -14.227733 74.720139 114.374104 1.250830 13.907385 -28.827523 12.123288 -17.957763 1.350694 -0.905403 -5.697065 -5.703580 4.778869 -70.837111 -8.338222 -36.880293 -92.362964 -17.595033 -33.494463 2.345402 0.553323 15.674229 5.554927 0.481018 3.830490 1.414709 -9.816219 -5.353084 -12.927837 0.443237 0.770900 11.312374 4.311940 7.133513 7.641875 -14.918227 9.895185 -3.070358 9.653290 -9.705375 -1.337634 0.000000 0.000000 0.000000
730.731707 97.081837 898.636972 113.879160 -11.651046 -4.004123 1.313977 11.921517 -0.568153 0.614091 -2.344008 -0.324553 0.614388 2.945772 -0.267861 0.461982 2.209064 -0.203816 24.352129 20.288840 -5.549728 45.666196 6.803224 -16.117591 2.852656 -5.519114 -5.621032 22.207143 -14.258868 74.658349 114.368898 1.139501 13.945519 -28.811457 12.109845 -17.983201 1.349544 -0.937890 -5.725281 -5.704807 4.779226 -70.855034 -8.324766 -36.881882 -92.356158 -17.555186 -33.506295 2.274004 1.059691 15.547177 5.750648 0.008006 3.803181 1.504594 -9.833973 -5.306983 -13.039153 0.437670 0.753887 11.294141 4.257006 6.935675 7.723998 -14.813580 10.092462 -3.068124 9.555786 -9.627315 -1.555587 -0.000000 0.000000 0.000000
